<?xml version="1.0" encoding="utf-8"?>
<!-- Generator: Adobe Illustrator 16.0.0, SVG Export Plug-In . SVG Version: 6.00 Build 0)  -->
<!DOCTYPE svg PUBLIC "-//W3C//DTD SVG 1.1//EN" "http://www.w3.org/Graphics/SVG/1.1/DTD/svg11.dtd">
<svg version="1.1" id="Layer_1" xmlns="http://www.w3.org/2000/svg" xmlns:xlink="http://www.w3.org/1999/xlink" x="0px" y="0px"
	 width="341.046px" height="292.06px" viewBox="127.117 274.605 341.046 292.06"
	 enable-background="new 127.117 274.605 341.046 292.06" xml:space="preserve">
<g id="XMLID_2_">
	<path id="XMLID_6_" fill="#333333" d="M394.993,451.33v60.768c0,14.883-5.581,27.904-16.122,38.445
		c-10.542,10.541-23.563,16.123-38.445,16.123H181.685c-14.883,0-27.904-5.582-38.445-16.123
		c-10.542-10.541-16.122-23.563-16.122-38.445V353.976c0-14.882,5.58-27.904,16.122-38.445
		c10.541-10.542,23.563-16.122,38.445-16.122h133.938c1.86,0,3.101,0.62,4.341,1.86s1.86,2.48,1.86,4.34v12.402
		c0,1.86-0.62,3.1-1.86,4.34s-2.48,1.86-4.341,1.86H181.685c-8.682,0-15.502,3.101-21.703,8.681
		c-6.201,5.581-8.682,13.022-8.682,21.703v158.122c0,8.68,3.101,15.502,8.682,21.701c6.201,6.201,13.021,8.682,21.703,8.682h158.121
		c8.681,0,15.502-3.1,21.702-8.682c6.201-6.199,8.682-13.021,8.682-21.701v-60.77c0-1.859,0.62-3.1,1.86-4.34
		s2.48-1.861,4.341-1.861h12.401c1.86,0,3.101,0.621,4.341,1.861C394.373,448.228,394.993,449.468,394.993,451.33z M468.163,287.007
		v97.354c0,3.1-1.24,6.201-3.721,8.681c-2.48,2.48-4.961,3.72-8.682,3.72s-6.2-1.24-8.681-3.72l-33.484-33.485L289.579,483.574
		c-1.24,1.24-2.48,1.859-4.341,1.859s-3.101-0.619-4.341-1.859l-21.703-21.703c-1.24-1.24-1.86-2.48-1.86-4.34
		c0-1.861,0.62-3.102,1.86-4.342l124.017-124.016l-33.484-33.485c-2.48-2.48-3.721-4.96-3.721-8.681c0-3.1,1.24-6.201,3.721-8.681
		c2.48-2.48,4.961-3.72,8.682-3.72h97.353c3.101,0,6.201,1.24,8.682,3.72C466.923,280.806,468.163,283.907,468.163,287.007z"/>
</g>
</svg>
