<?xml version="1.0" encoding="utf-8"?>
<!-- Generator: Adobe Illustrator 21.1.0, SVG Export Plug-In . SVG Version: 6.00 Build 0)  -->
<svg version="1.1" id="Ebene_1" xmlns="http://www.w3.org/2000/svg" xmlns:xlink="http://www.w3.org/1999/xlink" x="0px" y="0px"
	 viewBox="0 0 73.7 73.7" style="enable-background:new 0 0 73.7 73.7;" xml:space="preserve">
<style type="text/css">
	.st0{clip-path:url(#SVGID_2_);fill:#F15A24;}
	.st1{clip-path:url(#SVGID_2_);fill:#FFFFFF;}
</style>
<g>
	<defs>
		<rect id="SVGID_1_" width="73.7" height="73.7"/>
	</defs>
	<clipPath id="SVGID_2_">
		<use xlink:href="#SVGID_1_"  style="overflow:visible;"/>
	</clipPath>
	<path class="st0" d="M73.7,36.8c0,20.4-16.5,36.9-36.8,36.9C16.5,73.7,0,57.2,0,36.8C0,16.5,16.5,0,36.9,0
		C57.2,0,73.7,16.5,73.7,36.8"/>
	<path class="st1" d="M31.5,42.1c-6,0-10.8-4.7-10.8-10.4s4.8-10.4,10.8-10.4s10.8,4.7,10.8,10.4S37.4,42.1,31.5,42.1 M45.8,42.1
		h-1.9l-0.7-0.6c2.3-2.6,3.8-6,3.8-9.8c0-8.3-7-15-15.6-15s-15.6,6.7-15.6,15s7,15,15.6,15c3.9,0,7.4-1.4,10.1-3.6l0.7,0.6v1.8
		l12,11.5l3.6-3.4L45.8,42.1z"/>
</g>
</svg>
